<mxfile host="app.diagrams.net" agent="Mozilla/5.0 (Windows NT 10.0; Win64; x64) AppleWebKit/537.36 (KHTML, like Gecko) Chrome/135.0.0.0 Safari/537.36" version="26.2.9">
  <diagram name="Page-1" id="GWR3ltt73PbXsSvgDf5O">
    <mxGraphModel dx="1428" dy="743" grid="1" gridSize="10" guides="1" tooltips="1" connect="1" arrows="1" fold="1" page="1" pageScale="1" pageWidth="850" pageHeight="1100" math="0" shadow="0">
      <root>
        <mxCell id="0" />
        <mxCell id="1" parent="0" />
        <mxCell id="9oJshPM_smJAjiLmhGao-6" style="edgeStyle=orthogonalEdgeStyle;rounded=0;orthogonalLoop=1;jettySize=auto;html=1;exitX=1;exitY=0.5;exitDx=0;exitDy=0;curved=1;" edge="1" parent="1" source="9oJshPM_smJAjiLmhGao-1" target="9oJshPM_smJAjiLmhGao-4">
          <mxGeometry relative="1" as="geometry" />
        </mxCell>
        <mxCell id="9oJshPM_smJAjiLmhGao-15" value="position &amp;gt; 0&lt;div&gt;direction = forward&lt;/div&gt;" style="edgeLabel;html=1;align=center;verticalAlign=middle;resizable=0;points=[];" vertex="1" connectable="0" parent="9oJshPM_smJAjiLmhGao-6">
          <mxGeometry x="-0.27" y="-10" relative="1" as="geometry">
            <mxPoint x="57" y="-10" as="offset" />
          </mxGeometry>
        </mxCell>
        <mxCell id="9oJshPM_smJAjiLmhGao-11" style="edgeStyle=orthogonalEdgeStyle;rounded=0;orthogonalLoop=1;jettySize=auto;html=1;exitX=0;exitY=1;exitDx=0;exitDy=0;entryX=0;entryY=0;entryDx=0;entryDy=0;curved=1;" edge="1" parent="1" source="9oJshPM_smJAjiLmhGao-1" target="9oJshPM_smJAjiLmhGao-2">
          <mxGeometry relative="1" as="geometry">
            <Array as="points">
              <mxPoint x="350" y="188" />
              <mxPoint x="350" y="372" />
            </Array>
          </mxGeometry>
        </mxCell>
        <mxCell id="9oJshPM_smJAjiLmhGao-12" value="direction=reverse" style="edgeLabel;html=1;align=center;verticalAlign=middle;resizable=0;points=[];" vertex="1" connectable="0" parent="9oJshPM_smJAjiLmhGao-11">
          <mxGeometry x="-0.0441" y="-2" relative="1" as="geometry">
            <mxPoint y="5" as="offset" />
          </mxGeometry>
        </mxCell>
        <mxCell id="9oJshPM_smJAjiLmhGao-1" value="Position 0" style="ellipse;whiteSpace=wrap;html=1;aspect=fixed;" vertex="1" parent="1">
          <mxGeometry x="360" y="120" width="80" height="80" as="geometry" />
        </mxCell>
        <mxCell id="9oJshPM_smJAjiLmhGao-7" style="edgeStyle=orthogonalEdgeStyle;rounded=0;orthogonalLoop=1;jettySize=auto;html=1;exitX=0;exitY=0.5;exitDx=0;exitDy=0;entryX=0.5;entryY=1;entryDx=0;entryDy=0;curved=1;" edge="1" parent="1" source="9oJshPM_smJAjiLmhGao-2" target="9oJshPM_smJAjiLmhGao-5">
          <mxGeometry relative="1" as="geometry" />
        </mxCell>
        <mxCell id="9oJshPM_smJAjiLmhGao-21" value="&lt;div&gt;position &amp;lt; 15&lt;/div&gt;direction = backward" style="edgeLabel;html=1;align=center;verticalAlign=middle;resizable=0;points=[];" vertex="1" connectable="0" parent="9oJshPM_smJAjiLmhGao-7">
          <mxGeometry x="-0.19" y="-15" relative="1" as="geometry">
            <mxPoint x="-49" y="25" as="offset" />
          </mxGeometry>
        </mxCell>
        <mxCell id="9oJshPM_smJAjiLmhGao-13" style="edgeStyle=orthogonalEdgeStyle;rounded=0;orthogonalLoop=1;jettySize=auto;html=1;exitX=1;exitY=0;exitDx=0;exitDy=0;entryX=1;entryY=1;entryDx=0;entryDy=0;curved=1;" edge="1" parent="1" source="9oJshPM_smJAjiLmhGao-2" target="9oJshPM_smJAjiLmhGao-1">
          <mxGeometry relative="1" as="geometry">
            <Array as="points">
              <mxPoint x="450" y="372" />
              <mxPoint x="450" y="188" />
            </Array>
          </mxGeometry>
        </mxCell>
        <mxCell id="9oJshPM_smJAjiLmhGao-14" value="direction=forward" style="edgeLabel;html=1;align=center;verticalAlign=middle;resizable=0;points=[];" vertex="1" connectable="0" parent="9oJshPM_smJAjiLmhGao-13">
          <mxGeometry x="-0.0441" y="2" relative="1" as="geometry">
            <mxPoint as="offset" />
          </mxGeometry>
        </mxCell>
        <mxCell id="9oJshPM_smJAjiLmhGao-2" value="Position 15" style="ellipse;whiteSpace=wrap;html=1;aspect=fixed;" vertex="1" parent="1">
          <mxGeometry x="360" y="360" width="80" height="80" as="geometry" />
        </mxCell>
        <mxCell id="9oJshPM_smJAjiLmhGao-18" style="edgeStyle=orthogonalEdgeStyle;rounded=0;orthogonalLoop=1;jettySize=auto;html=1;exitX=0.5;exitY=1;exitDx=0;exitDy=0;entryX=1;entryY=0.5;entryDx=0;entryDy=0;curved=1;" edge="1" parent="1" source="9oJshPM_smJAjiLmhGao-4" target="9oJshPM_smJAjiLmhGao-2">
          <mxGeometry relative="1" as="geometry" />
        </mxCell>
        <mxCell id="9oJshPM_smJAjiLmhGao-19" value="position = 15" style="edgeLabel;html=1;align=center;verticalAlign=middle;resizable=0;points=[];" vertex="1" connectable="0" parent="9oJshPM_smJAjiLmhGao-18">
          <mxGeometry x="0.07" y="-19" relative="1" as="geometry">
            <mxPoint x="27" y="9" as="offset" />
          </mxGeometry>
        </mxCell>
        <mxCell id="9oJshPM_smJAjiLmhGao-4" value="Forward" style="ellipse;whiteSpace=wrap;html=1;aspect=fixed;" vertex="1" parent="1">
          <mxGeometry x="520" y="240" width="80" height="80" as="geometry" />
        </mxCell>
        <mxCell id="9oJshPM_smJAjiLmhGao-8" style="edgeStyle=orthogonalEdgeStyle;rounded=0;orthogonalLoop=1;jettySize=auto;html=1;exitX=0.5;exitY=0;exitDx=0;exitDy=0;entryX=0;entryY=0.5;entryDx=0;entryDy=0;curved=1;" edge="1" parent="1" source="9oJshPM_smJAjiLmhGao-5" target="9oJshPM_smJAjiLmhGao-1">
          <mxGeometry relative="1" as="geometry" />
        </mxCell>
        <mxCell id="9oJshPM_smJAjiLmhGao-10" value="position = 0" style="edgeLabel;html=1;align=center;verticalAlign=middle;resizable=0;points=[];" vertex="1" connectable="0" parent="9oJshPM_smJAjiLmhGao-8">
          <mxGeometry x="0.2" y="-9" relative="1" as="geometry">
            <mxPoint x="-40" y="-9" as="offset" />
          </mxGeometry>
        </mxCell>
        <mxCell id="9oJshPM_smJAjiLmhGao-5" value="Reverse" style="ellipse;whiteSpace=wrap;html=1;aspect=fixed;" vertex="1" parent="1">
          <mxGeometry x="200" y="240" width="80" height="80" as="geometry" />
        </mxCell>
        <mxCell id="9oJshPM_smJAjiLmhGao-16" style="edgeStyle=orthogonalEdgeStyle;rounded=0;orthogonalLoop=1;jettySize=auto;html=1;exitX=1;exitY=0;exitDx=0;exitDy=0;entryX=1;entryY=1;entryDx=0;entryDy=0;curved=1;" edge="1" parent="1" source="9oJshPM_smJAjiLmhGao-4" target="9oJshPM_smJAjiLmhGao-4">
          <mxGeometry relative="1" as="geometry">
            <Array as="points">
              <mxPoint x="588" y="220" />
              <mxPoint x="660" y="220" />
              <mxPoint x="660" y="340" />
              <mxPoint x="588" y="340" />
            </Array>
          </mxGeometry>
        </mxCell>
        <mxCell id="9oJshPM_smJAjiLmhGao-17" value="position &amp;gt; 0&lt;div&gt;position &amp;lt; 15&lt;/div&gt;&lt;div&gt;&lt;br&gt;&lt;/div&gt;&lt;div&gt;position = position + 1&lt;/div&gt;" style="edgeLabel;html=1;align=center;verticalAlign=middle;resizable=0;points=[];" vertex="1" connectable="0" parent="9oJshPM_smJAjiLmhGao-16">
          <mxGeometry x="-0.0367" y="-2" relative="1" as="geometry">
            <mxPoint x="62" y="6" as="offset" />
          </mxGeometry>
        </mxCell>
        <mxCell id="9oJshPM_smJAjiLmhGao-23" style="edgeStyle=orthogonalEdgeStyle;rounded=0;orthogonalLoop=1;jettySize=auto;html=1;exitX=0;exitY=1;exitDx=0;exitDy=0;entryX=0;entryY=0;entryDx=0;entryDy=0;curved=1;" edge="1" parent="1" source="9oJshPM_smJAjiLmhGao-5" target="9oJshPM_smJAjiLmhGao-5">
          <mxGeometry relative="1" as="geometry">
            <Array as="points">
              <mxPoint x="212" y="340" />
              <mxPoint x="140" y="340" />
              <mxPoint x="140" y="220" />
              <mxPoint x="212" y="220" />
            </Array>
          </mxGeometry>
        </mxCell>
        <mxCell id="9oJshPM_smJAjiLmhGao-24" value="position &amp;gt; 0&lt;div&gt;position &amp;lt; 15&lt;/div&gt;&lt;div&gt;&lt;br&gt;&lt;/div&gt;&lt;div&gt;position = position - 1&lt;/div&gt;" style="edgeLabel;html=1;align=center;verticalAlign=middle;resizable=0;points=[];" vertex="1" connectable="0" parent="9oJshPM_smJAjiLmhGao-23">
          <mxGeometry x="0.0184" y="2" relative="1" as="geometry">
            <mxPoint x="-58" y="3" as="offset" />
          </mxGeometry>
        </mxCell>
        <mxCell id="9oJshPM_smJAjiLmhGao-25" value="" style="edgeStyle=none;orthogonalLoop=1;jettySize=auto;html=1;rounded=0;entryX=0.5;entryY=0;entryDx=0;entryDy=0;" edge="1" parent="1" target="9oJshPM_smJAjiLmhGao-1">
          <mxGeometry width="100" relative="1" as="geometry">
            <mxPoint x="400" y="40" as="sourcePoint" />
            <mxPoint x="450" y="70" as="targetPoint" />
            <Array as="points" />
          </mxGeometry>
        </mxCell>
        <mxCell id="9oJshPM_smJAjiLmhGao-26" value="reset = 0" style="edgeLabel;html=1;align=center;verticalAlign=middle;resizable=0;points=[];" vertex="1" connectable="0" parent="9oJshPM_smJAjiLmhGao-25">
          <mxGeometry x="0.025" y="2" relative="1" as="geometry">
            <mxPoint x="23" y="-1" as="offset" />
          </mxGeometry>
        </mxCell>
        <mxCell id="9oJshPM_smJAjiLmhGao-27" value="start" style="edgeLabel;html=1;align=center;verticalAlign=middle;resizable=0;points=[];" vertex="1" connectable="0" parent="9oJshPM_smJAjiLmhGao-25">
          <mxGeometry x="0.275" y="2" relative="1" as="geometry">
            <mxPoint y="-61" as="offset" />
          </mxGeometry>
        </mxCell>
      </root>
    </mxGraphModel>
  </diagram>
</mxfile>
